<?xml version="1.0" encoding="UTF-8" standalone="no"?><!DOCTYPE svg PUBLIC "-//W3C//DTD SVG 1.1//EN" "http://www.w3.org/Graphics/SVG/1.1/DTD/svg11.dtd"><svg width="100%" height="100%" viewBox="0 0 1157 1157" version="1.1" xmlns="http://www.w3.org/2000/svg" xmlns:xlink="http://www.w3.org/1999/xlink" xml:space="preserve" xmlns:serif="http://www.serif.com/" style="fill-rule:evenodd;clip-rule:evenodd;stroke-linejoin:round;stroke-miterlimit:2;"><rect id="Logo_Outline_White" x="2.253" y="2.472" width="1153.41" height="1153.41" style="fill:none;"/><path d="M436.291,477.518l-81.657,-0l0,65.491c0,32.172 -26.08,58.252 -58.251,58.252l-49.326,-0c-32.171,-0 -58.251,-26.08 -58.252,-58.252l0,-296.811c0.001,-32.172 26.081,-58.252 58.252,-58.252l296.811,0c32.172,0 58.252,26.08 58.252,58.252l-0,296.811c-0,32.172 -26.08,58.252 -58.252,58.252l-49.325,-0c-32.172,-0 -58.252,-26.08 -58.252,-58.252l0,-65.491Zm-123.324,65.491l0,-89.797c0,-4.604 1.83,-9.02 5.085,-12.276c3.256,-3.256 7.672,-5.085 12.277,-5.085l130.268,0c4.604,0 9.02,1.829 12.276,5.085c3.256,3.256 5.085,7.672 5.085,12.276l-0,89.797c-0,9.16 7.425,16.585 16.585,16.585l49.325,0c9.16,-0 16.585,-7.425 16.585,-16.585l0,-296.811c0,-9.16 -7.425,-16.585 -16.585,-16.585l-296.811,-0c-9.16,-0 -16.585,7.425 -16.585,16.585l0,296.811c0,9.16 7.425,16.585 16.585,16.585l49.326,0c9.159,-0 16.584,-7.425 16.584,-16.585Zm17.362,-230.901l130.268,0c4.604,0 9.02,1.829 12.276,5.085c3.256,3.256 5.085,7.672 5.085,12.276l-0,6.526c-0,4.604 -1.829,9.02 -5.085,12.276c-3.256,3.256 -7.672,5.085 -12.276,5.085l-130.268,-0c-4.605,-0 -9.021,-1.829 -12.277,-5.085c-3.255,-3.256 -5.085,-7.672 -5.085,-12.276l0,-6.526c0,-4.604 1.83,-9.02 5.085,-12.276c3.256,-3.256 7.672,-5.085 12.277,-5.085Z" style="fill:#fff;"/><path d="M725.863,315.719c6.164,-2.04 12.668,-3.108 19.283,-3.108l43.091,0c6.615,0 13.119,1.068 19.283,3.108l-0,-66.404c-0,-16.276 6.465,-31.885 17.974,-43.394c11.509,-11.509 27.119,-17.975 43.394,-17.975l43.092,0c16.276,0 31.885,6.466 43.394,17.975c11.509,11.508 17.974,27.118 17.975,43.394l-0,290.577c-0.001,33.893 -27.476,61.369 -61.369,61.369l-45.432,-0c-32.6,-0 -59.028,-26.428 -59.028,-59.028l-0,-2.844l-81.657,0l-0,2.844c-0,32.6 -26.428,59.028 -59.028,59.028l-45.432,-0c-33.893,-0 -61.369,-27.476 -61.369,-61.369l0,-290.577c0,-16.276 6.466,-31.886 17.975,-43.394c11.509,-11.509 27.118,-17.975 43.394,-17.975l43.091,0c16.276,0 31.885,6.466 43.394,17.975c11.509,11.509 17.975,27.118 17.975,43.394l-0,66.404Zm-41.667,226.514l0,-27.149c0,-4.605 1.829,-9.021 5.085,-12.276c3.256,-3.256 7.672,-5.085 12.276,-5.085l130.268,-0c4.605,-0 9.021,1.829 12.277,5.085c3.255,3.255 5.085,7.671 5.085,12.276l-0,27.149c-0,9.588 7.772,17.361 17.361,17.361l45.432,0c10.881,-0 19.702,-8.821 19.702,-19.702l-0,-290.577c-0,-5.226 -2.076,-10.237 -5.771,-13.932c-3.695,-3.694 -8.706,-5.77 -13.931,-5.77l-43.092,-0c-5.225,-0 -10.236,2.076 -13.931,5.77c-3.695,3.695 -5.77,8.707 -5.77,13.932l-0,145.288c-0,11.383 -9.242,20.624 -20.624,20.624c-11.383,0 -20.624,-9.241 -20.624,-20.624l-0,-20.623c-0,-5.226 -2.076,-10.237 -5.771,-13.932c-3.694,-3.694 -8.706,-5.77 -13.931,-5.77l-43.091,-0c-5.226,-0 -10.237,2.076 -13.932,5.77c-3.695,3.695 -5.77,8.706 -5.77,13.932l-0,20.623c-0,11.383 -9.242,20.624 -20.624,20.624c-11.383,0 -20.624,-9.241 -20.624,-20.624l0,-145.288c0,-5.225 -2.076,-10.237 -5.77,-13.932c-3.695,-3.694 -8.707,-5.77 -13.932,-5.77l-43.091,-0c-5.226,-0 -10.237,2.076 -13.932,5.77c-3.694,3.695 -5.77,8.706 -5.77,13.932l-0,290.577c-0,10.881 8.821,19.702 19.702,19.702l45.432,0c9.588,0 17.361,-7.773 17.361,-17.361Z" style="fill:#fff;"/><path d="M725.863,621.046l81.657,0l-0,-2.843c-0,-32.6 26.428,-59.028 59.028,-59.028l45.432,-0c33.893,0 61.368,27.476 61.369,61.368l-0,290.578c-0,16.276 -6.466,31.885 -17.975,43.394c-11.509,11.509 -27.118,17.974 -43.394,17.974l-43.091,0c-16.276,0 -31.886,-6.465 -43.395,-17.974c-11.509,-11.509 -17.974,-27.118 -17.974,-43.394l-0,-65.483c-6.164,2.041 -12.668,3.108 -19.283,3.108l-43.091,0c-6.615,0 -13.119,-1.067 -19.283,-3.108l-0,65.483c-0,16.276 -6.466,31.885 -17.975,43.394c-11.509,11.509 -27.118,17.974 -43.394,17.974l-43.091,0c-16.276,0 -31.885,-6.465 -43.394,-17.974c-11.509,-11.509 -17.975,-27.118 -17.975,-43.394l0,-290.578c0,-33.892 27.476,-61.368 61.369,-61.368l45.432,-0c32.6,-0 59.028,26.428 59.028,59.028l-0,2.843Zm123.324,-2.843l-0,27.149c-0,4.604 -1.83,9.02 -5.085,12.276c-3.256,3.256 -7.672,5.085 -12.277,5.085l-130.268,0c-4.604,0 -9.02,-1.829 -12.276,-5.085c-3.256,-3.256 -5.085,-7.672 -5.085,-12.276l0,-27.149c0,-9.589 -7.773,-17.361 -17.361,-17.361l-45.432,-0c-10.881,-0 -19.702,8.82 -19.702,19.701l-0,290.578c-0,5.225 2.076,10.236 5.77,13.931c3.695,3.695 8.706,5.771 13.932,5.771l43.091,-0c5.225,-0 10.237,-2.076 13.932,-5.771c3.694,-3.695 5.77,-8.706 5.77,-13.931l0,-145.289c0,-11.382 9.241,-20.624 20.624,-20.624c11.382,0 20.624,9.242 20.624,20.624l-0,21.546c-0,5.225 2.075,10.236 5.77,13.931c3.695,3.695 8.706,5.771 13.932,5.771l43.091,-0c5.225,-0 10.237,-2.076 13.931,-5.771c3.695,-3.695 5.771,-8.706 5.771,-13.931l-0,-21.546c-0,-11.382 9.241,-20.624 20.624,-20.624c11.382,0 20.624,9.242 20.624,20.624l-0,145.289c-0,5.225 2.075,10.236 5.77,13.931c3.695,3.695 8.706,5.771 13.931,5.771l43.092,-0c5.225,-0 10.236,-2.076 13.931,-5.771c3.695,-3.695 5.771,-8.706 5.771,-13.931l-0,-290.578c-0,-10.881 -8.821,-19.701 -19.702,-19.701l-45.432,-0c-9.589,-0 -17.361,7.772 -17.361,17.361Z" style="fill:#fff;"/><path d="M588.689,703.962c8.644,10.412 13.431,23.563 13.431,37.208l-0,173.067c-0,15.45 -6.137,30.266 -17.062,41.191c-10.924,10.924 -25.74,17.061 -41.19,17.061l-296.811,0c-32.171,0 -58.251,-26.08 -58.252,-58.251l0,-49.326c0.001,-14.148 5.044,-27.118 13.432,-37.209c-8.644,-10.413 -13.432,-23.564 -13.432,-37.208l0,-173.068c0,-15.449 6.138,-30.266 17.062,-41.19c10.924,-10.925 25.741,-17.062 41.19,-17.062l296.811,-0c32.172,0 58.252,26.08 58.252,58.251l-0,49.326c-0,14.148 -5.044,27.118 -13.431,37.21Zm-341.632,103.118l210.277,-0c11.383,-0 20.624,9.241 20.624,20.624c-0,11.382 -9.241,20.623 -20.624,20.623l-210.277,0c-9.159,0 -16.585,7.426 -16.585,16.585l0,49.326c0,9.159 7.426,16.585 16.585,16.585l296.811,-0c4.399,-0 8.617,-1.748 11.728,-4.858c3.11,-3.11 4.857,-7.329 4.857,-11.727l0,-173.068c0,-4.399 -1.747,-8.618 -4.857,-11.728c-3.111,-3.11 -7.329,-4.857 -11.728,-4.857l-210.277,-0c-11.382,-0 -20.624,-9.242 -20.624,-20.624c0,-11.383 9.242,-20.624 20.624,-20.624l210.277,-0c9.16,-0 16.585,-7.425 16.585,-16.585l0,-49.325c0,-9.16 -7.425,-16.585 -16.585,-16.585l-296.811,-0c-4.399,-0 -8.617,1.747 -11.727,4.857c-3.111,3.111 -4.858,7.329 -4.858,11.728l0,173.068c0,4.398 1.747,8.617 4.858,11.727c3.11,3.11 7.328,4.858 11.727,4.858Z" style="fill:#fff;"/><path d="M312.548,542.233l0,-47.773c0,-32.6 26.428,-59.028 59.028,-59.028l47.773,0c32.6,0 59.028,26.428 59.028,59.028l-0,47.773c-0,32.6 -26.428,59.028 -59.028,59.028l-47.773,-0c-32.6,-0 -59.028,-26.428 -59.028,-59.028Zm41.667,-0c0,9.588 7.773,17.361 17.361,17.361l47.773,0c9.588,-0 17.361,-7.773 17.361,-17.361l0,-47.773c0,-9.588 -7.773,-17.361 -17.361,-17.361l-47.773,-0c-9.588,-0 -17.361,7.773 -17.361,17.361l0,47.773Z" style="fill:#fff;"/><path d="M683.777,604.104l0,-47.773c0,-32.6 26.428,-59.027 59.028,-59.027l47.773,-0c32.6,-0 59.028,26.427 59.028,59.027l-0,47.773c-0,32.6 -26.428,59.028 -59.028,59.028l-47.773,0c-32.6,0 -59.028,-26.428 -59.028,-59.028Zm41.667,0c-0,9.589 7.773,17.361 17.361,17.361l47.773,0c9.588,0 17.361,-7.772 17.361,-17.361l-0,-47.773c-0,-9.588 -7.773,-17.361 -17.361,-17.361l-47.773,0c-9.588,0 -17.361,7.773 -17.361,17.361l-0,47.773Z" style="fill:#fff;"/><path d="M683.777,294.747l0,-47.773c0,-32.6 26.428,-59.028 59.028,-59.028l47.773,0c32.6,0 59.028,26.428 59.028,59.028l-0,47.773c-0,32.6 -26.428,59.028 -59.028,59.028l-47.773,-0c-32.6,-0 -59.028,-26.428 -59.028,-59.028Zm41.667,0c-0,9.588 7.773,17.361 17.361,17.361l47.773,0c9.588,0 17.361,-7.773 17.361,-17.361l-0,-47.773c-0,-9.588 -7.773,-17.361 -17.361,-17.361l-47.773,-0c-9.588,-0 -17.361,7.773 -17.361,17.361l-0,47.773Z" style="fill:#fff;"/><path d="M683.777,913.462l0,-47.774c0,-32.6 26.428,-59.027 59.028,-59.027l47.773,-0c32.6,-0 59.028,26.427 59.028,59.027l-0,47.774c-0,32.6 -26.428,59.027 -59.028,59.027l-47.773,0c-32.6,0 -59.028,-26.427 -59.028,-59.027Zm41.667,-0c-0,9.588 7.773,17.361 17.361,17.361l47.773,-0c9.588,-0 17.361,-7.773 17.361,-17.361l-0,-47.774c-0,-9.588 -7.773,-17.361 -17.361,-17.361l-47.773,0c-9.588,0 -17.361,7.773 -17.361,17.361l-0,47.774Z" style="fill:#fff;"/></svg>